<?xml version="1.0" ?><!DOCTYPE svg  PUBLIC '-//W3C//DTD SVG 1.1 Tiny//EN'  'http://www.w3.org/Graphics/SVG/1.1/DTD/svg11-tiny.dtd'><svg baseProfile="tiny" height="512px" id="MSN_Messenger" version="1.1" viewBox="0 0 512 512" width="512px" xml:space="preserve" xmlns="http://www.w3.org/2000/svg" xmlns:xlink="http://www.w3.org/1999/xlink"><path d="M430.854,303.797c-2.023-48.574-45.703-74.717-70.885-85.804c13.497-10.844,22.147-27.476,22.147-46.137  c0-32.678-26.489-59.169-59.163-59.169s-59.164,26.491-59.164,59.169c0,18.661,8.65,35.295,22.148,46.137  c-25.183,11.086-68.861,37.231-70.885,85.804c-1.2,28.82,5.184,39.168,12.979,41.505c6.75-32.39,30.212-89.271,31.929-88.268  c0,0-8.163,25.394-12.216,37.399c-7.448,22.061-12.653,46.83-13.089,62.32c8.627,33.126,44.866,37.8,88.299,37.8  c43.426,0,79.667-4.678,88.295-37.803c-0.437-15.487-5.644-40.257-13.09-62.317c-4.053-12.006-12.215-37.399-12.215-37.399  c1.716-1.003,25.18,55.88,31.929,88.268C425.669,342.967,432.057,332.619,430.854,303.797z M204.435,303.355  c0.658-15.814,5.143-29.453,11.854-41.147c-2.267-6.952-4.427-13.673-4.427-13.673c0.409-0.238,2.688,4.502,5.641,11.649  c3.09-5.085,6.595-9.792,10.389-14.135c-10.107-11.676-23.68-19.166-33.236-23.373c8.94-7.181,14.67-18.199,14.67-30.56  c0-21.644-17.547-39.19-39.188-39.19c-21.641,0-39.186,17.547-39.186,39.19c0,12.361,5.728,23.379,14.668,30.56  c-16.68,7.342-45.609,24.661-46.95,56.833c-0.795,19.091,3.433,25.943,8.596,27.492c4.473-21.455,20.013-59.131,21.148-58.467  c0,0-5.404,16.821-8.09,24.773c-4.933,14.612-8.38,31.018-8.671,41.278c5.716,21.94,29.719,25.037,58.487,25.037  c14.056,0,26.954-0.76,37.158-4.076C203.603,323.581,204.169,309.752,204.435,303.355z"/></svg>